<?xml version="1.0" standalone="no"?>
<!DOCTYPE svg PUBLIC "-//W3C//DTD SVG 20010904//EN"
 "http://www.w3.org/TR/2001/REC-SVG-20010904/DTD/svg10.dtd">
<svg version="1.0" xmlns="http://www.w3.org/2000/svg"
 width="1024.000000pt" height="1024.000000pt" viewBox="0 0 1024.000000 1024.000000"
 preserveAspectRatio="xMidYMid meet">

<g transform="translate(0.000000,1024.000000) scale(0.100000,-0.100000)"
fill="#000000" stroke="none">
<path d="M6695 5774 c-101 -13 -161 -30 -244 -71 -175 -84 -303 -243 -347
-430 -22 -93 -15 -264 14 -353 53 -160 177 -306 322 -377 121 -60 199 -76 340
-70 189 7 316 63 450 197 125 124 190 282 190 460 0 72 -12 145 -24 158 -4 3
-56 -18 -116 -48 l-110 -54 0 -56 c0 -160 -96 -312 -238 -378 -193 -88 -422
-25 -530 146 -49 78 -65 142 -60 247 3 79 8 101 36 158 82 165 271 257 452
218 l55 -12 127 62 c71 35 128 66 128 71 0 22 -154 98 -235 116 -59 13 -168
21 -210 16z"/>
<path d="M2696 5658 c-15 -62 -54 -232 -86 -378 -33 -146 -86 -379 -120 -518
-33 -139 -60 -260 -60 -268 0 -12 20 -14 126 -12 l127 3 67 287 c36 158 69
290 72 293 4 4 309 -537 332 -590 8 -17 31 20 197 313 89 156 165 280 169 275
4 -4 36 -137 71 -295 l63 -288 208 0 207 0 108 223 c60 122 140 289 179 370
l69 149 72 -149 c39 -81 72 -151 72 -155 1 -5 -44 -8 -100 -8 -97 0 -101 -1
-129 -28 -37 -37 -47 -89 -26 -134 29 -60 55 -68 223 -68 l150 0 48 -100 47
-100 234 0 234 0 0 250 0 250 245 0 245 0 0 -250 0 -250 120 0 120 0 0 640 0
640 -120 0 -120 0 -2 -267 -3 -268 -242 -3 -243 -2 0 270 0 270 -122 0 -123 0
0 -543 c0 -298 -2 -561 -5 -585 l-5 -44 -39 79 c-22 43 -124 256 -229 473
-104 217 -214 446 -244 509 -32 65 -59 109 -64 104 -9 -9 -273 -562 -434 -910
-54 -117 -101 -213 -105 -213 -4 0 -10 12 -13 28 -59 276 -238 1096 -241 1099
-7 7 -26 -25 -235 -392 -117 -203 -215 -371 -219 -373 -4 -1 -104 170 -221
380 -117 211 -217 387 -221 391 -4 5 -20 -42 -34 -105z"/>
<path d="M1714 5648 c30 -62 113 -239 186 -392 l131 -279 -27 -61 c-15 -34
-67 -144 -116 -245 -48 -101 -88 -186 -88 -187 0 -2 62 -4 139 -4 l138 0 53
108 c29 59 104 217 167 352 64 135 178 373 254 529 77 156 139 286 139 288 0
1 -64 3 -142 3 l-143 -1 -114 -244 c-63 -135 -117 -245 -120 -245 -3 0 -56
109 -116 243 l-110 242 -142 3 -143 3 54 -113z"/>
<path d="M7093 5512 l-502 -246 54 -101 c32 -58 60 -99 67 -97 7 2 155 72 328
157 173 84 354 171 403 193 l87 41 0 -490 0 -489 363 0 c302 0 372 3 417 16
71 21 117 51 173 113 80 90 110 211 83 338 -24 115 -82 196 -174 244 -39 19
-43 25 -38 48 33 146 32 218 -4 314 -27 71 -95 148 -162 181 l-52 26 -270 0
-271 -1 -502 -247z m1009 -22 c29 -30 30 -32 27 -116 -4 -79 -6 -88 -31 -109
-34 -29 -84 -37 -218 -33 l-105 3 -3 143 -3 142 151 0 152 0 30 -30z m199
-538 c25 -28 29 -40 29 -90 0 -69 -17 -97 -74 -123 -36 -16 -68 -19 -263 -19
l-223 0 0 135 0 136 251 -3 251 -3 29 -33z"/>
</g>
</svg>
