<?xml version="1.0" standalone="no"?>
<!DOCTYPE svg PUBLIC "-//W3C//DTD SVG 20010904//EN"
 "http://www.w3.org/TR/2001/REC-SVG-20010904/DTD/svg10.dtd">
<svg version="1.0" xmlns="http://www.w3.org/2000/svg"
 width="1365.000000pt" height="1365.000000pt" viewBox="0 0 1365.000000 1365.000000"
 preserveAspectRatio="xMidYMid meet">

<g transform="translate(0.000000,1365.000000) scale(0.100000,-0.100000)"
fill="#000000" stroke="none">
<path d="M0 6825 l0 -6825 6825 0 6825 0 0 6825 0 6825 -6825 0 -6825 0 0
-6825z m9085 865 c61 -6 133 -18 160 -26 61 -20 251 -112 265 -129 15 -18 -15
-38 -185 -122 l-140 -70 -75 13 c-95 17 -149 17 -229 0 -181 -39 -347 -186
-405 -359 -21 -64 -22 -251 0 -332 54 -209 255 -366 488 -382 230 -15 437 104
534 308 46 96 62 162 62 255 l0 65 133 63 c72 35 140 66 150 69 32 12 41 -36
41 -213 0 -153 -2 -171 -28 -250 -96 -294 -344 -530 -626 -595 -109 -25 -326
-31 -418 -11 -89 19 -242 84 -323 139 -131 88 -272 273 -324 427 -47 138 -55
369 -19 514 34 133 120 279 226 382 132 129 300 215 489 249 94 17 94 17 224
5z m-6493 -28 c4 -4 62 -128 131 -277 68 -148 135 -292 149 -318 l24 -49 116
244 c64 133 135 283 158 332 l40 89 181 -5 c99 -3 182 -8 185 -11 3 -3 -122
-273 -279 -599 -157 -326 -339 -705 -405 -843 l-118 -250 -187 -3 c-103 -1
-187 -1 -187 1 0 2 68 147 151 323 83 175 151 325 151 334 1 13 -197 438 -416
894 l-76 158 188 -7 c103 -4 190 -10 194 -13z m1111 -92 c30 -52 145 -256 256
-454 221 -391 259 -456 269 -456 10 0 113 174 496 840 84 145 104 176 110 169
4 -5 77 -332 216 -976 60 -277 112 -508 116 -514 9 -15 8 -17 309 621 139 294
290 611 337 704 l85 170 36 -65 c20 -36 129 -256 241 -490 112 -233 245 -509
296 -614 51 -104 112 -232 137 -284 32 -67 48 -90 54 -80 5 8 9 355 9 777 l0
762 165 0 165 0 0 -360 0 -360 325 0 325 0 0 360 0 360 160 0 160 0 0 -855 0
-855 -160 0 -160 0 0 335 0 335 -325 0 -325 0 0 -335 0 -335 -313 0 -313 0
-61 133 -62 132 -208 5 c-219 6 -235 9 -272 56 -45 57 -39 140 13 200 l34 39
130 5 c72 3 134 8 137 12 6 6 -176 398 -185 398 -3 0 -26 -44 -50 -98 -25 -54
-130 -275 -235 -490 l-190 -392 -277 0 c-153 0 -278 2 -278 5 0 10 -120 547
-146 653 -15 62 -31 112 -36 112 -8 0 -140 -219 -298 -495 -111 -194 -168
-285 -179 -285 -4 0 -22 30 -40 68 -35 71 -336 608 -381 679 l-27 42 -11 -38
c-7 -20 -48 -192 -92 -381 -44 -189 -82 -345 -84 -347 -9 -9 -312 -14 -324 -6
-14 11 -16 1 204 958 159 692 173 750 185 738 4 -4 32 -51 62 -103z m7208 74
c123 -65 218 -193 248 -332 15 -72 14 -145 -4 -239 -23 -120 -24 -117 53 -167
80 -52 119 -92 159 -166 49 -89 66 -172 61 -293 -4 -95 -8 -112 -41 -181 -42
-88 -133 -191 -205 -231 -103 -58 -106 -58 -644 -63 l-498 -4 0 651 c0 358 -2
651 -5 651 -3 0 -222 -104 -488 -231 -265 -127 -509 -243 -541 -257 l-59 -26
-26 31 c-37 44 -133 225 -124 234 5 3 157 79 338 167 182 88 481 235 665 326
l335 165 353 1 353 0 70 -36z"/>
<path d="M10362 7175 c3 -102 9 -189 12 -193 4 -4 83 -7 174 -7 155 0 170 2
215 23 26 13 52 33 58 44 13 24 24 186 15 221 -3 14 -23 42 -44 61 l-37 36
-199 0 -199 0 5 -185z"/>
<path d="M10360 6471 l0 -183 303 4 c298 3 303 3 350 28 61 31 83 61 92 126 8
64 -6 119 -44 162 l-29 34 -336 5 -336 6 0 -182z"/>
</g>
</svg>
